<svg width="40" height="40" version="1.1" viewBox="0 0 10.583 10.583" xmlns="http://www.w3.org/2000/svg">
 <circle cx="5.2917" cy="5.2917" r="4.4783" fill="none" stroke="#5c5470" stroke-linecap="round" stroke-width=".52917"/>
 <circle cx="5.2917" cy="5.2917" r="2.3199" fill="none" stroke="#5c5470" stroke-linecap="round" stroke-width=".29153"/>
 <g fill="#5c5470">
  <path d="m4.3781 6.5808a1.0184 1.0184 0 0 1 0.91374-0.56879 1.0184 1.0184 0 0 1 0.91342 0.56879 1.9155 1.1838 0 0 0-0.91342-0.14415 1.9155 1.1838 0 0 0-0.91374 0.14415z"/>
  <path d="m4.8382 4.94-0.5085 0.14831a0.28145 0.34485 0 0 0-3e-3 0.0501 0.28145 0.34485 0 0 0 0.28164 0.34468 0.28145 0.34485 0 0 0 0.28164-0.34468 0.28145 0.34485 0 0 0-0.0517-0.19844z" stroke="#5c5470" stroke-linecap="round" stroke-linejoin="round" stroke-width=".29153"/>
  <path d="m5.7454 4.94 0.5085 0.14831a0.28145 0.34485 0 0 1 3e-3 0.0501 0.28145 0.34485 0 0 1-0.28164 0.34468 0.28145 0.34485 0 0 1-0.28164-0.34468 0.28145 0.34485 0 0 1 0.0517-0.19844z" stroke="#5c5470" stroke-linecap="round" stroke-linejoin="round" stroke-width=".29153"/>
 </g>
</svg>
