<?xml version="1.0" encoding="UTF-8" standalone="no"?>
<svg
   xmlns:dc="http://purl.org/dc/elements/1.1/"
   xmlns:cc="http://creativecommons.org/ns#"
   xmlns:rdf="http://www.w3.org/1999/02/22-rdf-syntax-ns#"
   xmlns:svg="http://www.w3.org/2000/svg"
   xmlns="http://www.w3.org/2000/svg"
   xmlns:sodipodi="http://sodipodi.sourceforge.net/DTD/sodipodi-0.dtd"
   xmlns:inkscape="http://www.inkscape.org/namespaces/inkscape"
   width="25"
   height="25"
   viewBox="0 0 6.6145832 6.6145835"
   version="1.1"
   id="svg9584"
   inkscape:version="1.0 (9f2f71dc58, 2020-08-02)"
   sodipodi:docname="dark-to-light-mode.svg">
  <defs
     id="defs9578" />
  <sodipodi:namedview
     id="base"
     pagecolor="#ffffff"
     bordercolor="#666666"
     borderopacity="1.0"
     inkscape:pageopacity="0.0"
     inkscape:pageshadow="2"
     inkscape:zoom="5.0711273"
     inkscape:cx="69.398662"
     inkscape:cy="28.292387"
     inkscape:document-units="px"
     inkscape:current-layer="layer1"
     inkscape:document-rotation="0"
     showgrid="false"
     units="px"
     inkscape:window-width="1439"
     inkscape:window-height="1107"
     inkscape:window-x="977"
     inkscape:window-y="348"
     inkscape:window-maximized="0" />
  <metadata
     id="metadata9581">
    <rdf:RDF>
      <cc:Work
         rdf:about="">
        <dc:format>image/svg+xml</dc:format>
        <dc:type
           rdf:resource="http://purl.org/dc/dcmitype/StillImage" />
        <dc:title></dc:title>
      </cc:Work>
    </rdf:RDF>
  </metadata>
  <g
     inkscape:label="Layer 1"
     inkscape:groupmode="layer"
     id="layer1">
    <path
       id="rect19263"
       style="display:inline;opacity:1;fill:#01acfb;fill-opacity:1;stroke:none;stroke-width:0.265628;stroke-linecap:round;stroke-miterlimit:4;stroke-dasharray:none;stroke-dashoffset:0;stroke-opacity:1"
       d="m 3.3075317,0.24493365 -0.53456,0.534549 a 2.5834483,2.5834483 0 0 1 0.53456,-0.05552 2.5834483,2.5834483 0 0 1 0.53504,0.05601 z m -2.16572,0.89713805 v 0.756132 a 2.5834483,2.5834483 0 0 1 0.75661,-0.756132 z m 3.57431,0 a 2.5834483,2.5834483 0 0 1 0.75662,0.756132 v -0.756132 z m -3.93592004,1.630179 -0.53502,0.53504 0.53502,0.535041 a 2.5834483,2.5834483 0 0 1 -0.0565,-0.535041 2.5834483,2.5834483 0 0 1 0.0565,-0.53504 z m 5.05414004,0 a 2.5834483,2.5834483 0 0 1 0.0565,0.53504 2.5834483,2.5834483 0 0 1 -0.0565,0.535041 l 0.53506,-0.535041 z m -4.69253,1.944128 v 0.756131 h 0.75661 a 2.5834483,2.5834483 0 0 1 -0.75661,-0.756131 z m 4.33093,0 a 2.5834483,2.5834483 0 0 1 -0.75662,0.756131 h 0.75662 z m -2.69977,1.11823 0.53456,0.535041 0.53504,-0.535041 a 2.5834483,2.5834483 0 0 1 -0.53504,0.05601 2.5834483,2.5834483 0 0 1 -0.53456,-0.05601 z" />
    <circle
       style="display:inline;opacity:1;fill:#01acfb;fill-opacity:1;stroke:none;stroke-width:0.461187;stroke-linecap:round;stroke-miterlimit:4;stroke-dasharray:none;stroke-dashoffset:0;stroke-opacity:1"
       id="path19241"
       cx="3.3072917"
       cy="3.3072917"
       r="1.6180769" />
  </g>
</svg>
