<?xml version="1.0" encoding="UTF-8" standalone="no"?>
<svg
   xmlns:dc="http://purl.org/dc/elements/1.1/"
   xmlns:cc="http://creativecommons.org/ns#"
   xmlns:rdf="http://www.w3.org/1999/02/22-rdf-syntax-ns#"
   xmlns:svg="http://www.w3.org/2000/svg"
   xmlns="http://www.w3.org/2000/svg"
   xmlns:sodipodi="http://sodipodi.sourceforge.net/DTD/sodipodi-0.dtd"
   xmlns:inkscape="http://www.inkscape.org/namespaces/inkscape"
   width="30"
   height="30"
   viewBox="0 0 7.9374997 7.9374997"
   version="1.1"
   id="svg50757"
   inkscape:version="1.0.1 (0767f8302a, 2020-10-17)"
   sodipodi:docname="message-icon.svg">
  <defs
     id="defs50751" />
  <sodipodi:namedview
     id="base"
     pagecolor="#ffffff"
     bordercolor="#666666"
     borderopacity="1.0"
     inkscape:pageopacity="0.0"
     inkscape:pageshadow="2"
     inkscape:zoom="7.10248"
     inkscape:cx="17.357391"
     inkscape:cy="17.734032"
     inkscape:document-units="px"
     inkscape:current-layer="layer1"
     inkscape:document-rotation="0"
     showgrid="false"
     units="px"
     inkscape:window-width="1439"
     inkscape:window-height="1107"
     inkscape:window-x="871"
     inkscape:window-y="456"
     inkscape:window-maximized="0" />
  <metadata
     id="metadata50754">
    <rdf:RDF>
      <cc:Work
         rdf:about="">
        <dc:format>image/svg+xml</dc:format>
        <dc:type
           rdf:resource="http://purl.org/dc/dcmitype/StillImage" />
        <dc:title />
      </cc:Work>
    </rdf:RDF>
  </metadata>
  <g
     inkscape:label="Layer 1"
     inkscape:groupmode="layer"
     id="layer1">
    <path
       id="path50728"
       style="opacity:1;fill:none;stroke:#ffffff;stroke-width:0.39999998;stroke-linecap:round;stroke-miterlimit:4;stroke-dasharray:none"
       inkscape:transform-center-x="0.22784682"
       inkscape:transform-center-y="-0.13125484"
       d="m 5.2118401,4.9090872 c 0.023155,-3.8e-6 0.046308,-3.819e-4 0.069447,-0.00131 L 5.6937394,5.050914 6.8320279,5.4454452 6.6149747,4.3153708 c 0.353913,-0.3647859 0.5518484,-0.8530621 0.5518444,-1.361317 9.1e-6,-1.0797085 -0.8752709,-1.95498763 -1.954979,-1.95497889 -0.00231,-3.81e-6 -0.00467,-3.81e-6 -0.00698,0 C 4.6958349,1.0009095 4.2328124,1.1971191 3.886021,1.517299"
       sodipodi:nodetypes="ccccccccc" />
    <path
       id="path50733"
       style="opacity:1;fill:none;stroke:#ffffff;stroke-width:0.39999998;stroke-linecap:round;stroke-miterlimit:4;stroke-dasharray:none"
       inkscape:transform-center-x="-0.22784385"
       inkscape:transform-center-y="-0.1312547"
       d="m 3.1049591,1.8418 a 1.9549632,1.9549632 0 0 1 1.9480096,1.9549792 1.9549632,1.9549632 0 0 1 -1.954979,1.954979 1.9549632,1.9549632 0 0 1 -0.069447,-0.00125 L 2.6160903,5.8936309 1.477802,6.2881624 1.6948552,5.1580876 a 1.9549632,1.9549632 0 0 1 -0.551845,-1.3613169 1.9549632,1.9549632 0 0 1 1.9549795,-1.954979 1.9549632,1.9549632 0 0 1 0.00698,0 z" />
  </g>
</svg>
