<?xml version="1.0" encoding="UTF-8" standalone="no"?>
<svg
   xmlns:dc="http://purl.org/dc/elements/1.1/"
   xmlns:cc="http://creativecommons.org/ns#"
   xmlns:rdf="http://www.w3.org/1999/02/22-rdf-syntax-ns#"
   xmlns:svg="http://www.w3.org/2000/svg"
   xmlns="http://www.w3.org/2000/svg"
   xmlns:sodipodi="http://sodipodi.sourceforge.net/DTD/sodipodi-0.dtd"
   xmlns:inkscape="http://www.inkscape.org/namespaces/inkscape"
   width="26"
   height="26"
   viewBox="0 0 6.8791665 6.8791671"
   version="1.1"
   id="svg51418"
   inkscape:version="1.0.1 (3bc2e813f5, 2020-09-07)"
   sodipodi:docname="release-status-menu-icon.svg">
  <defs
     id="defs51412" />
  <sodipodi:namedview
     id="base"
     pagecolor="#ffffff"
     bordercolor="#666666"
     borderopacity="1.0"
     inkscape:pageopacity="0.0"
     inkscape:pageshadow="2"
     inkscape:zoom="4.9283493"
     inkscape:cx="31.15551"
     inkscape:cy="35.317461"
     inkscape:document-units="px"
     inkscape:current-layer="layer1"
     inkscape:document-rotation="0"
     showgrid="false"
     showguides="false"
     units="px"
     inkscape:window-width="1439"
     inkscape:window-height="1087"
     inkscape:window-x="1363"
     inkscape:window-y="303"
     inkscape:window-maximized="0" />
  <metadata
     id="metadata51415">
    <rdf:RDF>
      <cc:Work
         rdf:about="">
        <dc:format>image/svg+xml</dc:format>
        <dc:type
           rdf:resource="http://purl.org/dc/dcmitype/StillImage" />
        <dc:title />
      </cc:Work>
    </rdf:RDF>
  </metadata>
  <g
     inkscape:label="Layer 1"
     inkscape:groupmode="layer"
     id="layer1">
    <path
       id="path42578-1-5-1"
       style="display:inline;fill:none;stroke:#ffffff;stroke-width:0.264583;stroke-linecap:round;stroke-miterlimit:4;stroke-dasharray:none;stroke-opacity:1"
       d="m 3.0730182,0.38534889 c -0.1353701,0 -0.24439,0.10907 -0.24439,0.2444 V 1.1952889 a 2.3258072,2.3258072 0 0 0 -0.54377,0.22557 l -0.40017,-0.40017 c -0.0957,-0.0956 -0.24981,-0.0956 -0.34552,0 l -0.5182999,0.51829 c -0.0956999,0.0956 -0.0956999,0.24983 0,0.34553 l 0.40016,0.40017 a 2.3258072,2.3258072 0 0 0 -0.22518,0.54414 H 0.62955841 c -0.13536002,0 -0.24401002,0.108619 -0.24401002,0.24401 v 0.733139 c 0,0.135371 0.10865,0.24438 0.24401002,0.24438 H 1.1954783 a 2.3258072,2.3258072 0 0 0 0.22555,0.54414 l -0.40016,0.400171 c -0.0956999,0.0956 -0.0956999,0.249819 0,0.34553 l 0.5182999,0.51793 c 0.0957,0.0957 0.2498201,0.0957 0.34552,0 l 0.40017,-0.40016 a 2.3258072,2.3258072 0 0 0 0.54377,0.225539 v 0.565921 c 0,0.135359 0.1090199,0.244399 0.24439,0.244399 h 0.73313 c 0.1353601,0 0.2443898,-0.10907 0.2443898,-0.244399 v -0.565921 a 2.3258072,2.3258072 0 0 0 0.5437701,-0.225189 l 0.4001603,0.39981 c 0.0957,0.0957 0.24983,0.0957 0.34554,0 l 0.5183,-0.51793 c 0.0957,-0.0956 0.0957,-0.249821 0,-0.34553 l -0.3998,-0.400171 a 2.3258072,2.3258072 0 0 0 0.22519,-0.54414 h 0.56555 c 0.13536,0 0.24437,-0.109059 0.24437,-0.24438 v -0.733139 c 0,-0.13535 -0.10902,-0.24401 -0.24437,-0.24401 h -0.56555 a 2.3258072,2.3258072 0 0 0 -0.22556,-0.54414 l 0.40017,-0.40017 c 0.0957,-0.0956 0.0957,-0.24982 0,-0.34553 l -0.5183,-0.51829 c -0.0957,-0.0956 -0.24982,-0.0956 -0.34554,0 l -0.4001603,0.39978 A 2.3258072,2.3258072 0 0 0 4.050538,1.1952889 V 0.62974889 c 0,-0.13536 -0.1090297,-0.2444 -0.2443898,-0.2444 z m 0.36361,1.69666001 a 1.3576746,1.3576746 0 0 1 0.003,0 1.3576746,1.3576746 0 0 1 1.3577702,1.35739 1.3576746,1.3576746 0 0 1 -1.35774,1.357759 1.3576746,1.3576746 0 0 1 -1.35776,-1.357759 1.3576746,1.3576746 0 0 1 1.3548099,-1.35739 z" />
    <circle
       style="display:inline;opacity:1;fill:none;fill-opacity:1;stroke:#ffffff;stroke-width:0.264583;stroke-linecap:round;stroke-miterlimit:4;stroke-dasharray:none"
       id="circle14612-8"
       cx="3.4395833"
       cy="3.4395833"
       r="1.8820965" />
    <path
       id="path52031-2"
       style="display:inline;fill:none;stroke:#ffffff;stroke-width:0.264583;stroke-linecap:round;stroke-miterlimit:4;stroke-dasharray:none;stroke-opacity:1"
       d="m 3.0730182,0.38534889 c -0.1353701,0 -0.24439,0.10907 -0.24439,0.2444 V 1.1952889 a 2.3258072,2.3258072 0 0 0 -0.54377,0.22557 l -0.40017,-0.40017 c -0.0957,-0.0956 -0.24981,-0.0956 -0.34552,0 l -0.5182999,0.51829 c -0.0956999,0.0956 -0.0956999,0.24983 0,0.34553 l 0.40016,0.40017 a 2.3258072,2.3258072 0 0 0 -0.22518,0.54414 H 0.62955841 c -0.13536002,0 -0.24401002,0.108619 -0.24401002,0.24401 v 0.733139 c 0,0.135371 0.10865,0.24438 0.24401002,0.24438 H 1.1954783 a 2.3258072,2.3258072 0 0 0 0.22555,0.54414 l -0.40016,0.400171 c -0.0956999,0.0956 -0.0956999,0.249819 0,0.34553 l 0.5182999,0.51793 c 0.0957,0.0957 0.2498201,0.0957 0.34552,0 l 0.40017,-0.40016 a 2.3258072,2.3258072 0 0 0 0.54377,0.225539 v 0.565921 c 0,0.135359 0.1090199,0.244399 0.24439,0.244399 h 0.73313 c 0.1353601,0 0.2443898,-0.10907 0.2443898,-0.244399 v -0.565921 a 2.3258072,2.3258072 0 0 0 0.5437701,-0.225189 l 0.4001603,0.39981 c 0.0957,0.0957 0.24983,0.0957 0.34554,0 l 0.5183,-0.51793 c 0.0957,-0.0956 0.0957,-0.249821 0,-0.34553 l -0.3998,-0.400171 a 2.3258072,2.3258072 0 0 0 0.22519,-0.54414 h 0.56555 c 0.13536,0 0.24437,-0.109059 0.24437,-0.24438 v -0.733139 c 0,-0.13535 -0.10902,-0.24401 -0.24437,-0.24401 h -0.56555 a 2.3258072,2.3258072 0 0 0 -0.22556,-0.54414 l 0.40017,-0.40017 c 0.0957,-0.0956 0.0957,-0.24982 0,-0.34553 l -0.5183,-0.51829 c -0.0957,-0.0956 -0.24982,-0.0956 -0.34554,0 l -0.4001603,0.39978 A 2.3258072,2.3258072 0 0 0 4.050538,1.1952889 V 0.62974889 c 0,-0.13536 -0.1090297,-0.2444 -0.2443898,-0.2444 z m 0.36361,1.69666001 a 1.3576746,1.3576746 0 0 1 0.003,0 1.3576746,1.3576746 0 0 1 1.3577702,1.35739 1.3576746,1.3576746 0 0 1 -1.35774,1.357759 1.3576746,1.3576746 0 0 1 -1.35776,-1.357759 1.3576746,1.3576746 0 0 1 1.3548099,-1.35739 z" />
    <circle
       style="display:inline;opacity:1;fill:none;fill-opacity:1;stroke:#ffffff;stroke-width:0.264583;stroke-linecap:round;stroke-miterlimit:4;stroke-dasharray:none"
       id="circle52033-8"
       cx="3.4395833"
       cy="3.4395833"
       r="1.8820965" />
    <path
       id="path52035-7"
       style="display:inline;fill:none;stroke:#ffffff;stroke-width:0.264583;stroke-linecap:round;stroke-miterlimit:4;stroke-dasharray:none;stroke-opacity:1"
       d="m 3.0730182,0.38534889 c -0.1353701,0 -0.24439,0.10907 -0.24439,0.2444 V 1.1952889 a 2.3258072,2.3258072 0 0 0 -0.54377,0.22557 l -0.40017,-0.40017 c -0.0957,-0.0956 -0.24981,-0.0956 -0.34552,0 l -0.5182999,0.51829 c -0.0956999,0.0956 -0.0956999,0.24983 0,0.34553 l 0.40016,0.40017 a 2.3258072,2.3258072 0 0 0 -0.22518,0.54414 H 0.62955841 c -0.13536002,0 -0.24401002,0.108619 -0.24401002,0.24401 v 0.733139 c 0,0.135371 0.10865,0.24438 0.24401002,0.24438 H 1.1954783 a 2.3258072,2.3258072 0 0 0 0.22555,0.54414 l -0.40016,0.400171 c -0.0956999,0.0956 -0.0956999,0.249819 0,0.34553 l 0.5182999,0.51793 c 0.0957,0.0957 0.2498201,0.0957 0.34552,0 l 0.40017,-0.40016 a 2.3258072,2.3258072 0 0 0 0.54377,0.225539 v 0.565921 c 0,0.135359 0.1090199,0.244399 0.24439,0.244399 h 0.73313 c 0.1353601,0 0.2443898,-0.10907 0.2443898,-0.244399 v -0.565921 a 2.3258072,2.3258072 0 0 0 0.5437701,-0.225189 l 0.4001603,0.39981 c 0.0957,0.0957 0.24983,0.0957 0.34554,0 l 0.5183,-0.51793 c 0.0957,-0.0956 0.0957,-0.249821 0,-0.34553 l -0.3998,-0.400171 a 2.3258072,2.3258072 0 0 0 0.22519,-0.54414 h 0.56555 c 0.13536,0 0.24437,-0.109059 0.24437,-0.24438 v -0.733139 c 0,-0.13535 -0.10902,-0.24401 -0.24437,-0.24401 h -0.56555 a 2.3258072,2.3258072 0 0 0 -0.22556,-0.54414 l 0.40017,-0.40017 c 0.0957,-0.0956 0.0957,-0.24982 0,-0.34553 l -0.5183,-0.51829 c -0.0957,-0.0956 -0.24982,-0.0956 -0.34554,0 l -0.4001603,0.39978 A 2.3258072,2.3258072 0 0 0 4.050538,1.1952889 V 0.62974889 c 0,-0.13536 -0.1090297,-0.2444 -0.2443898,-0.2444 z m 0.36361,1.69666001 a 1.3576746,1.3576746 0 0 1 0.003,0 1.3576746,1.3576746 0 0 1 1.3577702,1.35739 1.3576746,1.3576746 0 0 1 -1.35774,1.357759 1.3576746,1.3576746 0 0 1 -1.35776,-1.357759 1.3576746,1.3576746 0 0 1 1.3548099,-1.35739 z" />
    <circle
       style="display:inline;opacity:1;fill:none;fill-opacity:1;stroke:#ffffff;stroke-width:0.264583;stroke-linecap:round;stroke-miterlimit:4;stroke-dasharray:none"
       id="circle52037-6"
       cx="3.4395833"
       cy="3.4395833"
       r="1.8820965" />
    <path
       id="path52071-8"
       style="display:inline;fill:none;stroke:#ffffff;stroke-width:0.264583;stroke-linecap:round;stroke-miterlimit:4;stroke-dasharray:none;stroke-opacity:1"
       d="m 3.0730182,0.38534889 c -0.1353701,0 -0.24439,0.10907 -0.24439,0.2444 V 1.1952889 a 2.3258072,2.3258072 0 0 0 -0.54377,0.22557 l -0.40017,-0.40017 c -0.0957,-0.0956 -0.24981,-0.0956 -0.34552,0 l -0.5182999,0.51829 c -0.0956999,0.0956 -0.0956999,0.24983 0,0.34553 l 0.40016,0.40017 a 2.3258072,2.3258072 0 0 0 -0.22518,0.54414 H 0.62955841 c -0.13536002,0 -0.24401002,0.108619 -0.24401002,0.24401 v 0.733139 c 0,0.135371 0.10865,0.24438 0.24401002,0.24438 H 1.1954783 a 2.3258072,2.3258072 0 0 0 0.22555,0.54414 l -0.40016,0.400171 c -0.0956999,0.0956 -0.0956999,0.249819 0,0.34553 l 0.5182999,0.51793 c 0.0957,0.0957 0.2498201,0.0957 0.34552,0 l 0.40017,-0.40016 a 2.3258072,2.3258072 0 0 0 0.54377,0.225539 v 0.565921 c 0,0.135359 0.1090199,0.244399 0.24439,0.244399 h 0.73313 c 0.1353601,0 0.2443898,-0.10907 0.2443898,-0.244399 v -0.565921 a 2.3258072,2.3258072 0 0 0 0.5437701,-0.225189 l 0.4001603,0.39981 c 0.0957,0.0957 0.24983,0.0957 0.34554,0 l 0.5183,-0.51793 c 0.0957,-0.0956 0.0957,-0.249821 0,-0.34553 l -0.3998,-0.400171 a 2.3258072,2.3258072 0 0 0 0.22519,-0.54414 h 0.56555 c 0.13536,0 0.24437,-0.109059 0.24437,-0.24438 v -0.733139 c 0,-0.13535 -0.10902,-0.24401 -0.24437,-0.24401 h -0.56555 a 2.3258072,2.3258072 0 0 0 -0.22556,-0.54414 l 0.40017,-0.40017 c 0.0957,-0.0956 0.0957,-0.24982 0,-0.34553 l -0.5183,-0.51829 c -0.0957,-0.0956 -0.24982,-0.0956 -0.34554,0 l -0.4001603,0.39978 A 2.3258072,2.3258072 0 0 0 4.050538,1.1952889 V 0.62974889 c 0,-0.13536 -0.1090297,-0.2444 -0.2443898,-0.2444 z m 0.36361,1.69666001 a 1.3576746,1.3576746 0 0 1 0.003,0 1.3576746,1.3576746 0 0 1 1.3577702,1.35739 1.3576746,1.3576746 0 0 1 -1.35774,1.357759 1.3576746,1.3576746 0 0 1 -1.35776,-1.357759 1.3576746,1.3576746 0 0 1 1.3548099,-1.35739 z" />
    <circle
       style="display:inline;opacity:1;fill:none;fill-opacity:1;stroke:#ffffff;stroke-width:0.264583;stroke-linecap:round;stroke-miterlimit:4;stroke-dasharray:none"
       id="circle52073-4"
       cx="3.4395833"
       cy="3.4395833"
       r="1.8820965" />
    <path
       id="path52081-8"
       style="display:inline;fill:none;stroke:#ffffff;stroke-width:0.264583;stroke-linecap:round;stroke-miterlimit:4;stroke-dasharray:none;stroke-opacity:1"
       d="m 3.0730182,0.38534889 c -0.1353701,0 -0.24439,0.10907 -0.24439,0.2444 V 1.1952889 a 2.3258072,2.3258072 0 0 0 -0.54377,0.22557 l -0.40017,-0.40017 c -0.0957,-0.0956 -0.24981,-0.0956 -0.34552,0 l -0.5182999,0.51829 c -0.0956999,0.0956 -0.0956999,0.24983 0,0.34553 l 0.40016,0.40017 a 2.3258072,2.3258072 0 0 0 -0.22518,0.54414 H 0.62955841 c -0.13536002,0 -0.24401002,0.108619 -0.24401002,0.24401 v 0.733139 c 0,0.135371 0.10865,0.24438 0.24401002,0.24438 H 1.1954783 a 2.3258072,2.3258072 0 0 0 0.22555,0.54414 l -0.40016,0.400171 c -0.0956999,0.0956 -0.0956999,0.249819 0,0.34553 l 0.5182999,0.51793 c 0.0957,0.0957 0.2498201,0.0957 0.34552,0 l 0.40017,-0.40016 a 2.3258072,2.3258072 0 0 0 0.54377,0.225539 v 0.565921 c 0,0.135359 0.1090199,0.244399 0.24439,0.244399 h 0.73313 c 0.1353601,0 0.2443898,-0.10907 0.2443898,-0.244399 v -0.565921 a 2.3258072,2.3258072 0 0 0 0.5437701,-0.225189 l 0.4001603,0.39981 c 0.0957,0.0957 0.24983,0.0957 0.34554,0 l 0.5183,-0.51793 c 0.0957,-0.0956 0.0957,-0.249821 0,-0.34553 l -0.3998,-0.400171 a 2.3258072,2.3258072 0 0 0 0.22519,-0.54414 h 0.56555 c 0.13536,0 0.24437,-0.109059 0.24437,-0.24438 v -0.733139 c 0,-0.13535 -0.10902,-0.24401 -0.24437,-0.24401 h -0.56555 a 2.3258072,2.3258072 0 0 0 -0.22556,-0.54414 l 0.40017,-0.40017 c 0.0957,-0.0956 0.0957,-0.24982 0,-0.34553 l -0.5183,-0.51829 c -0.0957,-0.0956 -0.24982,-0.0956 -0.34554,0 l -0.4001603,0.39978 A 2.3258072,2.3258072 0 0 0 4.050538,1.1952889 V 0.62974889 c 0,-0.13536 -0.1090297,-0.2444 -0.2443898,-0.2444 z m 0.36361,1.69666001 a 1.3576746,1.3576746 0 0 1 0.003,0 1.3576746,1.3576746 0 0 1 1.3577702,1.35739 1.3576746,1.3576746 0 0 1 -1.35774,1.357759 1.3576746,1.3576746 0 0 1 -1.35776,-1.357759 1.3576746,1.3576746 0 0 1 1.3548099,-1.35739 z" />
    <circle
       style="display:inline;opacity:1;fill:none;fill-opacity:1;stroke:#ffffff;stroke-width:0.264583;stroke-linecap:round;stroke-miterlimit:4;stroke-dasharray:none"
       id="circle52083-9"
       cx="3.4395833"
       cy="3.4395833"
       r="1.8820965" />
    <path
       id="path52085-8"
       style="display:inline;fill:none;stroke:#ffffff;stroke-width:0.264583;stroke-linecap:round;stroke-miterlimit:4;stroke-dasharray:none;stroke-opacity:1"
       d="m 3.0730182,0.38534889 c -0.1353701,0 -0.24439,0.10907 -0.24439,0.2444 V 1.1952889 a 2.3258072,2.3258072 0 0 0 -0.54377,0.22557 l -0.40017,-0.40017 c -0.0957,-0.0956 -0.24981,-0.0956 -0.34552,0 l -0.5182999,0.51829 c -0.0956999,0.0956 -0.0956999,0.24983 0,0.34553 l 0.40016,0.40017 a 2.3258072,2.3258072 0 0 0 -0.22518,0.54414 H 0.62955841 c -0.13536002,0 -0.24401002,0.108619 -0.24401002,0.24401 v 0.733139 c 0,0.135371 0.10865,0.24438 0.24401002,0.24438 H 1.1954783 a 2.3258072,2.3258072 0 0 0 0.22555,0.54414 l -0.40016,0.400171 c -0.0956999,0.0956 -0.0956999,0.249819 0,0.34553 l 0.5182999,0.51793 c 0.0957,0.0957 0.2498201,0.0957 0.34552,0 l 0.40017,-0.40016 a 2.3258072,2.3258072 0 0 0 0.54377,0.225539 v 0.565921 c 0,0.135359 0.1090199,0.244399 0.24439,0.244399 h 0.73313 c 0.1353601,0 0.2443898,-0.10907 0.2443898,-0.244399 v -0.565921 a 2.3258072,2.3258072 0 0 0 0.5437701,-0.225189 l 0.4001603,0.39981 c 0.0957,0.0957 0.24983,0.0957 0.34554,0 l 0.5183,-0.51793 c 0.0957,-0.0956 0.0957,-0.249821 0,-0.34553 l -0.3998,-0.400171 a 2.3258072,2.3258072 0 0 0 0.22519,-0.54414 h 0.56555 c 0.13536,0 0.24437,-0.109059 0.24437,-0.24438 v -0.733139 c 0,-0.13535 -0.10902,-0.24401 -0.24437,-0.24401 h -0.56555 a 2.3258072,2.3258072 0 0 0 -0.22556,-0.54414 l 0.40017,-0.40017 c 0.0957,-0.0956 0.0957,-0.24982 0,-0.34553 l -0.5183,-0.51829 c -0.0957,-0.0956 -0.24982,-0.0956 -0.34554,0 l -0.4001603,0.39978 A 2.3258072,2.3258072 0 0 0 4.050538,1.1952889 V 0.62974889 c 0,-0.13536 -0.1090297,-0.2444 -0.2443898,-0.2444 z m 0.36361,1.69666001 a 1.3576746,1.3576746 0 0 1 0.003,0 1.3576746,1.3576746 0 0 1 1.3577702,1.35739 1.3576746,1.3576746 0 0 1 -1.35774,1.357759 1.3576746,1.3576746 0 0 1 -1.35776,-1.357759 1.3576746,1.3576746 0 0 1 1.3548099,-1.35739 z" />
    <circle
       style="display:inline;opacity:1;fill:none;fill-opacity:1;stroke:#ffffff;stroke-width:0.264583;stroke-linecap:round;stroke-miterlimit:4;stroke-dasharray:none"
       id="circle52087-3"
       cx="3.4395833"
       cy="3.4395833"
       r="1.8820965" />
    <path
       id="path52089-7"
       style="display:inline;fill:none;stroke:#ffffff;stroke-width:0.264583;stroke-linecap:round;stroke-miterlimit:4;stroke-dasharray:none;stroke-opacity:1"
       d="m 3.0730182,0.38534889 c -0.1353701,0 -0.24439,0.10907 -0.24439,0.2444 V 1.1952889 a 2.3258072,2.3258072 0 0 0 -0.54377,0.22557 l -0.40017,-0.40017 c -0.0957,-0.0956 -0.24981,-0.0956 -0.34552,0 l -0.5182999,0.51829 c -0.0956999,0.0956 -0.0956999,0.24983 0,0.34553 l 0.40016,0.40017 a 2.3258072,2.3258072 0 0 0 -0.22518,0.54414 H 0.62955841 c -0.13536002,0 -0.24401002,0.108619 -0.24401002,0.24401 v 0.733139 c 0,0.135371 0.10865,0.24438 0.24401002,0.24438 H 1.1954783 a 2.3258072,2.3258072 0 0 0 0.22555,0.54414 l -0.40016,0.400171 c -0.0956999,0.0956 -0.0956999,0.249819 0,0.34553 l 0.5182999,0.51793 c 0.0957,0.0957 0.2498201,0.0957 0.34552,0 l 0.40017,-0.40016 a 2.3258072,2.3258072 0 0 0 0.54377,0.225539 v 0.565921 c 0,0.135359 0.1090199,0.244399 0.24439,0.244399 h 0.73313 c 0.1353601,0 0.2443898,-0.10907 0.2443898,-0.244399 v -0.565921 a 2.3258072,2.3258072 0 0 0 0.5437701,-0.225189 l 0.4001603,0.39981 c 0.0957,0.0957 0.24983,0.0957 0.34554,0 l 0.5183,-0.51793 c 0.0957,-0.0956 0.0957,-0.249821 0,-0.34553 l -0.3998,-0.400171 a 2.3258072,2.3258072 0 0 0 0.22519,-0.54414 h 0.56555 c 0.13536,0 0.24437,-0.109059 0.24437,-0.24438 v -0.733139 c 0,-0.13535 -0.10902,-0.24401 -0.24437,-0.24401 h -0.56555 a 2.3258072,2.3258072 0 0 0 -0.22556,-0.54414 l 0.40017,-0.40017 c 0.0957,-0.0956 0.0957,-0.24982 0,-0.34553 l -0.5183,-0.51829 c -0.0957,-0.0956 -0.24982,-0.0956 -0.34554,0 l -0.4001603,0.39978 A 2.3258072,2.3258072 0 0 0 4.050538,1.1952889 V 0.62974889 c 0,-0.13536 -0.1090297,-0.2444 -0.2443898,-0.2444 z m 0.36361,1.69666001 a 1.3576746,1.3576746 0 0 1 0.003,0 1.3576746,1.3576746 0 0 1 1.3577702,1.35739 1.3576746,1.3576746 0 0 1 -1.35774,1.357759 1.3576746,1.3576746 0 0 1 -1.35776,-1.357759 1.3576746,1.3576746 0 0 1 1.3548099,-1.35739 z" />
    <circle
       style="display:inline;opacity:1;fill:none;fill-opacity:1;stroke:#ffffff;stroke-width:0.264583;stroke-linecap:round;stroke-miterlimit:4;stroke-dasharray:none"
       id="circle52091-0"
       cx="3.4395833"
       cy="3.4395833"
       r="1.8820965" />
    <path
       id="path52099-7"
       style="display:inline;fill:none;stroke:#ffffff;stroke-width:0.264583;stroke-linecap:round;stroke-miterlimit:4;stroke-dasharray:none;stroke-opacity:1"
       d="m 3.0730182,0.38534889 c -0.1353701,0 -0.24439,0.10907 -0.24439,0.2444 V 1.1952889 a 2.3258072,2.3258072 0 0 0 -0.54377,0.22557 l -0.40017,-0.40017 c -0.0957,-0.0956 -0.24981,-0.0956 -0.34552,0 l -0.5182999,0.51829 c -0.0956999,0.0956 -0.0956999,0.24983 0,0.34553 l 0.40016,0.40017 a 2.3258072,2.3258072 0 0 0 -0.22518,0.54414 H 0.62955841 c -0.13536002,0 -0.24401002,0.108619 -0.24401002,0.24401 v 0.733139 c 0,0.135371 0.10865,0.24438 0.24401002,0.24438 H 1.1954783 a 2.3258072,2.3258072 0 0 0 0.22555,0.54414 l -0.40016,0.400171 c -0.0956999,0.0956 -0.0956999,0.249819 0,0.34553 l 0.5182999,0.51793 c 0.0957,0.0957 0.2498201,0.0957 0.34552,0 l 0.40017,-0.40016 a 2.3258072,2.3258072 0 0 0 0.54377,0.225539 v 0.565921 c 0,0.135359 0.1090199,0.244399 0.24439,0.244399 h 0.73313 c 0.1353601,0 0.2443898,-0.10907 0.2443898,-0.244399 v -0.565921 a 2.3258072,2.3258072 0 0 0 0.5437701,-0.225189 l 0.4001603,0.39981 c 0.0957,0.0957 0.24983,0.0957 0.34554,0 l 0.5183,-0.51793 c 0.0957,-0.0956 0.0957,-0.249821 0,-0.34553 l -0.3998,-0.400171 a 2.3258072,2.3258072 0 0 0 0.22519,-0.54414 h 0.56555 c 0.13536,0 0.24437,-0.109059 0.24437,-0.24438 v -0.733139 c 0,-0.13535 -0.10902,-0.24401 -0.24437,-0.24401 h -0.56555 a 2.3258072,2.3258072 0 0 0 -0.22556,-0.54414 l 0.40017,-0.40017 c 0.0957,-0.0956 0.0957,-0.24982 0,-0.34553 l -0.5183,-0.51829 c -0.0957,-0.0956 -0.24982,-0.0956 -0.34554,0 l -0.4001603,0.39978 A 2.3258072,2.3258072 0 0 0 4.050538,1.1952889 V 0.62974889 c 0,-0.13536 -0.1090297,-0.2444 -0.2443898,-0.2444 z m 0.36361,1.69666001 a 1.3576746,1.3576746 0 0 1 0.003,0 1.3576746,1.3576746 0 0 1 1.3577702,1.35739 1.3576746,1.3576746 0 0 1 -1.35774,1.357759 1.3576746,1.3576746 0 0 1 -1.35776,-1.357759 1.3576746,1.3576746 0 0 1 1.3548099,-1.35739 z" />
    <circle
       style="display:inline;opacity:1;fill:none;fill-opacity:1;stroke:#ffffff;stroke-width:0.264583;stroke-linecap:round;stroke-miterlimit:4;stroke-dasharray:none"
       id="circle52101-1"
       cx="3.4395833"
       cy="3.4395833"
       r="1.8820965" />
    <path
       id="path52103-9"
       style="display:inline;fill:none;stroke:#ffffff;stroke-width:0.264583;stroke-linecap:round;stroke-miterlimit:4;stroke-dasharray:none;stroke-opacity:1"
       d="m 3.0730182,0.38534889 c -0.1353701,0 -0.24439,0.10907 -0.24439,0.2444 V 1.1952889 a 2.3258072,2.3258072 0 0 0 -0.54377,0.22557 l -0.40017,-0.40017 c -0.0957,-0.0956 -0.24981,-0.0956 -0.34552,0 l -0.5182999,0.51829 c -0.0956999,0.0956 -0.0956999,0.24983 0,0.34553 l 0.40016,0.40017 a 2.3258072,2.3258072 0 0 0 -0.22518,0.54414 H 0.62955841 c -0.13536002,0 -0.24401002,0.108619 -0.24401002,0.24401 v 0.733139 c 0,0.135371 0.10865,0.24438 0.24401002,0.24438 H 1.1954783 a 2.3258072,2.3258072 0 0 0 0.22555,0.54414 l -0.40016,0.400171 c -0.0956999,0.0956 -0.0956999,0.249819 0,0.34553 l 0.5182999,0.51793 c 0.0957,0.0957 0.2498201,0.0957 0.34552,0 l 0.40017,-0.40016 a 2.3258072,2.3258072 0 0 0 0.54377,0.225539 v 0.565921 c 0,0.135359 0.1090199,0.244399 0.24439,0.244399 h 0.73313 c 0.1353601,0 0.2443898,-0.10907 0.2443898,-0.244399 v -0.565921 a 2.3258072,2.3258072 0 0 0 0.5437701,-0.225189 l 0.4001603,0.39981 c 0.0957,0.0957 0.24983,0.0957 0.34554,0 l 0.5183,-0.51793 c 0.0957,-0.0956 0.0957,-0.249821 0,-0.34553 l -0.3998,-0.400171 a 2.3258072,2.3258072 0 0 0 0.22519,-0.54414 h 0.56555 c 0.13536,0 0.24437,-0.109059 0.24437,-0.24438 v -0.733139 c 0,-0.13535 -0.10902,-0.24401 -0.24437,-0.24401 h -0.56555 a 2.3258072,2.3258072 0 0 0 -0.22556,-0.54414 l 0.40017,-0.40017 c 0.0957,-0.0956 0.0957,-0.24982 0,-0.34553 l -0.5183,-0.51829 c -0.0957,-0.0956 -0.24982,-0.0956 -0.34554,0 l -0.4001603,0.39978 A 2.3258072,2.3258072 0 0 0 4.050538,1.1952889 V 0.62974889 c 0,-0.13536 -0.1090297,-0.2444 -0.2443898,-0.2444 z m 0.36361,1.69666001 a 1.3576746,1.3576746 0 0 1 0.003,0 1.3576746,1.3576746 0 0 1 1.3577702,1.35739 1.3576746,1.3576746 0 0 1 -1.35774,1.357759 1.3576746,1.3576746 0 0 1 -1.35776,-1.357759 1.3576746,1.3576746 0 0 1 1.3548099,-1.35739 z" />
    <circle
       style="display:inline;opacity:1;fill:none;fill-opacity:1;stroke:#ffffff;stroke-width:0.264583;stroke-linecap:round;stroke-miterlimit:4;stroke-dasharray:none"
       id="circle52105-6"
       cx="3.4395833"
       cy="3.4395833"
       r="1.8820965" />
    <path
       id="path52107-3"
       style="display:inline;fill:none;stroke:#ffffff;stroke-width:0.264583;stroke-linecap:round;stroke-miterlimit:4;stroke-dasharray:none;stroke-opacity:1"
       d="m 3.0730182,0.38534889 c -0.1353701,0 -0.24439,0.10907 -0.24439,0.2444 V 1.1952889 a 2.3258072,2.3258072 0 0 0 -0.54377,0.22557 l -0.40017,-0.40017 c -0.0957,-0.0956 -0.24981,-0.0956 -0.34552,0 l -0.5182999,0.51829 c -0.0956999,0.0956 -0.0956999,0.24983 0,0.34553 l 0.40016,0.40017 a 2.3258072,2.3258072 0 0 0 -0.22518,0.54414 H 0.62955841 c -0.13536002,0 -0.24401002,0.108619 -0.24401002,0.24401 v 0.733139 c 0,0.135371 0.10865,0.24438 0.24401002,0.24438 H 1.1954783 a 2.3258072,2.3258072 0 0 0 0.22555,0.54414 l -0.40016,0.400171 c -0.0956999,0.0956 -0.0956999,0.249819 0,0.34553 l 0.5182999,0.51793 c 0.0957,0.0957 0.2498201,0.0957 0.34552,0 l 0.40017,-0.40016 a 2.3258072,2.3258072 0 0 0 0.54377,0.225539 v 0.565921 c 0,0.135359 0.1090199,0.244399 0.24439,0.244399 h 0.73313 c 0.1353601,0 0.2443898,-0.10907 0.2443898,-0.244399 v -0.565921 a 2.3258072,2.3258072 0 0 0 0.5437701,-0.225189 l 0.4001603,0.39981 c 0.0957,0.0957 0.24983,0.0957 0.34554,0 l 0.5183,-0.51793 c 0.0957,-0.0956 0.0957,-0.249821 0,-0.34553 l -0.3998,-0.400171 a 2.3258072,2.3258072 0 0 0 0.22519,-0.54414 h 0.56555 c 0.13536,0 0.24437,-0.109059 0.24437,-0.24438 v -0.733139 c 0,-0.13535 -0.10902,-0.24401 -0.24437,-0.24401 h -0.56555 a 2.3258072,2.3258072 0 0 0 -0.22556,-0.54414 l 0.40017,-0.40017 c 0.0957,-0.0956 0.0957,-0.24982 0,-0.34553 l -0.5183,-0.51829 c -0.0957,-0.0956 -0.24982,-0.0956 -0.34554,0 l -0.4001603,0.39978 A 2.3258072,2.3258072 0 0 0 4.050538,1.1952889 V 0.62974889 c 0,-0.13536 -0.1090297,-0.2444 -0.2443898,-0.2444 z m 0.36361,1.69666001 a 1.3576746,1.3576746 0 0 1 0.003,0 1.3576746,1.3576746 0 0 1 1.3577702,1.35739 1.3576746,1.3576746 0 0 1 -1.35774,1.357759 1.3576746,1.3576746 0 0 1 -1.35776,-1.357759 1.3576746,1.3576746 0 0 1 1.3548099,-1.35739 z" />
    <circle
       style="display:inline;opacity:1;fill:none;fill-opacity:1;stroke:#ffffff;stroke-width:0.264583;stroke-linecap:round;stroke-miterlimit:4;stroke-dasharray:none"
       id="circle52109-0"
       cx="3.4395833"
       cy="3.4395833"
       r="1.8820965" />
    <path
       id="path52117-1"
       style="display:inline;fill:none;stroke:#ffffff;stroke-width:0.264583;stroke-linecap:round;stroke-miterlimit:4;stroke-dasharray:none;stroke-opacity:1"
       d="m 3.0730182,0.38534889 c -0.1353701,0 -0.24439,0.10907 -0.24439,0.2444 V 1.1952889 a 2.3258072,2.3258072 0 0 0 -0.54377,0.22557 l -0.40017,-0.40017 c -0.0957,-0.0956 -0.24981,-0.0956 -0.34552,0 l -0.5182999,0.51829 c -0.0956999,0.0956 -0.0956999,0.24983 0,0.34553 l 0.40016,0.40017 a 2.3258072,2.3258072 0 0 0 -0.22518,0.54414 H 0.62955841 c -0.13536002,0 -0.24401002,0.108619 -0.24401002,0.24401 v 0.733139 c 0,0.135371 0.10865,0.24438 0.24401002,0.24438 H 1.1954783 a 2.3258072,2.3258072 0 0 0 0.22555,0.54414 l -0.40016,0.400171 c -0.0956999,0.0956 -0.0956999,0.249819 0,0.34553 l 0.5182999,0.51793 c 0.0957,0.0957 0.2498201,0.0957 0.34552,0 l 0.40017,-0.40016 a 2.3258072,2.3258072 0 0 0 0.54377,0.225539 v 0.565921 c 0,0.135359 0.1090199,0.244399 0.24439,0.244399 h 0.73313 c 0.1353601,0 0.2443898,-0.10907 0.2443898,-0.244399 v -0.565921 a 2.3258072,2.3258072 0 0 0 0.5437701,-0.225189 l 0.4001603,0.39981 c 0.0957,0.0957 0.24983,0.0957 0.34554,0 l 0.5183,-0.51793 c 0.0957,-0.0956 0.0957,-0.249821 0,-0.34553 l -0.3998,-0.400171 a 2.3258072,2.3258072 0 0 0 0.22519,-0.54414 h 0.56555 c 0.13536,0 0.24437,-0.109059 0.24437,-0.24438 v -0.733139 c 0,-0.13535 -0.10902,-0.24401 -0.24437,-0.24401 h -0.56555 a 2.3258072,2.3258072 0 0 0 -0.22556,-0.54414 l 0.40017,-0.40017 c 0.0957,-0.0956 0.0957,-0.24982 0,-0.34553 l -0.5183,-0.51829 c -0.0957,-0.0956 -0.24982,-0.0956 -0.34554,0 l -0.4001603,0.39978 A 2.3258072,2.3258072 0 0 0 4.050538,1.1952889 V 0.62974889 c 0,-0.13536 -0.1090297,-0.2444 -0.2443898,-0.2444 z m 0.36361,1.69666001 a 1.3576746,1.3576746 0 0 1 0.003,0 1.3576746,1.3576746 0 0 1 1.3577702,1.35739 1.3576746,1.3576746 0 0 1 -1.35774,1.357759 1.3576746,1.3576746 0 0 1 -1.35776,-1.357759 1.3576746,1.3576746 0 0 1 1.3548099,-1.35739 z" />
    <circle
       style="display:inline;opacity:1;fill:none;fill-opacity:1;stroke:#ffffff;stroke-width:0.264583;stroke-linecap:round;stroke-miterlimit:4;stroke-dasharray:none"
       id="circle52119-4"
       cx="3.4395833"
       cy="3.4395833"
       r="1.8820965" />
    <path
       id="path52121-8"
       style="display:inline;fill:none;stroke:#ffffff;stroke-width:0.264583;stroke-linecap:round;stroke-miterlimit:4;stroke-dasharray:none;stroke-opacity:1"
       d="m 3.0730182,0.38534889 c -0.1353701,0 -0.24439,0.10907 -0.24439,0.2444 V 1.1952889 a 2.3258072,2.3258072 0 0 0 -0.54377,0.22557 l -0.40017,-0.40017 c -0.0957,-0.0956 -0.24981,-0.0956 -0.34552,0 l -0.5182999,0.51829 c -0.0956999,0.0956 -0.0956999,0.24983 0,0.34553 l 0.40016,0.40017 a 2.3258072,2.3258072 0 0 0 -0.22518,0.54414 H 0.62955841 c -0.13536002,0 -0.24401002,0.108619 -0.24401002,0.24401 v 0.733139 c 0,0.135371 0.10865,0.24438 0.24401002,0.24438 H 1.1954783 a 2.3258072,2.3258072 0 0 0 0.22555,0.54414 l -0.40016,0.400171 c -0.0956999,0.0956 -0.0956999,0.249819 0,0.34553 l 0.5182999,0.51793 c 0.0957,0.0957 0.2498201,0.0957 0.34552,0 l 0.40017,-0.40016 a 2.3258072,2.3258072 0 0 0 0.54377,0.225539 v 0.565921 c 0,0.135359 0.1090199,0.244399 0.24439,0.244399 h 0.73313 c 0.1353601,0 0.2443898,-0.10907 0.2443898,-0.244399 v -0.565921 a 2.3258072,2.3258072 0 0 0 0.5437701,-0.225189 l 0.4001603,0.39981 c 0.0957,0.0957 0.24983,0.0957 0.34554,0 l 0.5183,-0.51793 c 0.0957,-0.0956 0.0957,-0.249821 0,-0.34553 l -0.3998,-0.400171 a 2.3258072,2.3258072 0 0 0 0.22519,-0.54414 h 0.56555 c 0.13536,0 0.24437,-0.109059 0.24437,-0.24438 v -0.733139 c 0,-0.13535 -0.10902,-0.24401 -0.24437,-0.24401 h -0.56555 a 2.3258072,2.3258072 0 0 0 -0.22556,-0.54414 l 0.40017,-0.40017 c 0.0957,-0.0956 0.0957,-0.24982 0,-0.34553 l -0.5183,-0.51829 c -0.0957,-0.0956 -0.24982,-0.0956 -0.34554,0 l -0.4001603,0.39978 A 2.3258072,2.3258072 0 0 0 4.050538,1.1952889 V 0.62974889 c 0,-0.13536 -0.1090297,-0.2444 -0.2443898,-0.2444 z m 0.36361,1.69666001 a 1.3576746,1.3576746 0 0 1 0.003,0 1.3576746,1.3576746 0 0 1 1.3577702,1.35739 1.3576746,1.3576746 0 0 1 -1.35774,1.357759 1.3576746,1.3576746 0 0 1 -1.35776,-1.357759 1.3576746,1.3576746 0 0 1 1.3548099,-1.35739 z" />
  </g>
</svg>
