<svg width="20" height="20" version="1.1" viewBox="0 0 5.2917 5.2917" xmlns="http://www.w3.org/2000/svg">
 <g stroke-linecap="round">
  <circle cx="2.6458" cy="2.6458" r="2.6458" fill="#b3b3b3" stroke-width=".090088"/>
  <path d="m2.4267 0.82017c-0.081083 0-0.14609 0.065217-0.14609 0.14609v0.33809a1.3904 1.3904 0 0 0-0.3253 0.13483l-0.23922-0.23923c-0.057153-0.057295-0.14913-0.057295-0.20635 0l-0.30986 0.30985c-0.057295 0.057295-0.057295 0.14936 0 0.20657l0.23924 0.23924a1.3904 1.3904 0 0 0-0.13482 0.32507h-0.33834c-0.081083 0-0.14609 0.065217-0.14609 0.14608v0.43828c0 0.080948 0.065217 0.14607 0.14609 0.14607h0.33834a1.3904 1.3904 0 0 0 0.13482 0.32508l-0.23924 0.23922c-0.057295 0.057224-0.057295 0.14937 0 0.20656l0.30986 0.30986c0.057224 0.057295 0.14913 0.057295 0.20635 0l0.23922-0.23922a1.3904 1.3904 0 0 0 0.3253 0.13482v0.33832c0 0.080814 0.065217 0.14593 0.14609 0.14593h0.43827c0.081083 0 0.14594-0.065005 0.14594-0.14593v-0.33832a1.3904 1.3904 0 0 0 0.32529-0.13469l0.23903 0.23903c0.057295 0.057224 0.14956 0.057224 0.20678 0l0.30985-0.30986c0.057295-0.057295 0.057295-0.14935 0-0.20657l-0.23901-0.23901a1.3904 1.3904 0 0 0 0.13469-0.32529h0.3381c0.080814 0 0.14608-0.065217 0.14608-0.14608v-0.43828c0-0.080814-0.065217-0.14607-0.14608-0.14607h-0.3381a1.3904 1.3904 0 0 0-0.13482-0.32508l0.23922-0.23923c0.057295-0.057295 0.057295-0.14934 0-0.20656l-0.30985-0.30985c-0.057224-0.057295-0.14956-0.057295-0.20678 0l-0.239 0.239a1.3904 1.3904 0 0 0-0.32531-0.13469v-0.3381c0-0.080948-0.065146-0.14607-0.14593-0.14607zm0.21736 1.0141a0.81164 0.81164 0 0 1 0.00283 0 0.81164 0.81164 0 0 1 0.81146 0.8117 0.81164 0.81164 0 0 1-0.81146 0.81169 0.81164 0.81164 0 0 1-0.8117-0.81169 0.81164 0.81164 0 0 1 0.80992-0.8117z" fill="none" stroke="#fff" stroke-width=".26458"/>
 </g>
</svg>
