<?xml version="1.0" encoding="UTF-8" standalone="no"?>
<!-- Created with Inkscape (http://www.inkscape.org/) -->

<svg
   width="20"
   height="20"
   viewBox="0 0 5.2916665 5.2916667"
   version="1.1"
   id="svg28890"
   inkscape:version="1.2 (dc2aeda, 2022-05-15)"
   sodipodi:docname="type-unknown-icon.svg"
   xmlns:inkscape="http://www.inkscape.org/namespaces/inkscape"
   xmlns:sodipodi="http://sodipodi.sourceforge.net/DTD/sodipodi-0.dtd"
   xmlns="http://www.w3.org/2000/svg"
   xmlns:svg="http://www.w3.org/2000/svg">
  <sodipodi:namedview
     id="namedview28892"
     pagecolor="#ffffff"
     bordercolor="#000000"
     borderopacity="0.25"
     inkscape:showpageshadow="2"
     inkscape:pageopacity="0.0"
     inkscape:pagecheckerboard="0"
     inkscape:deskcolor="#d1d1d1"
     inkscape:document-units="mm"
     showgrid="false"
     inkscape:zoom="7.6095324"
     inkscape:cx="30.15954"
     inkscape:cy="34.101964"
     inkscape:window-width="1390"
     inkscape:window-height="905"
     inkscape:window-x="2059"
     inkscape:window-y="350"
     inkscape:window-maximized="0"
     inkscape:current-layer="layer1" />
  <defs
     id="defs28887" />
  <g
     inkscape:label="Layer 1"
     inkscape:groupmode="layer"
     id="layer1">
    <circle
       style="fill:#b3b3b3;stroke-width:0.0900882;stroke-linecap:round"
       id="path355-7-3"
       cx="2.6458333"
       cy="2.6458333"
       r="2.6458333" />
    <path
       id="path42578-1-3-1-7"
       style="display:inline;fill:none;fill-opacity:1;stroke:#ffffff;stroke-width:0.132291;stroke-linecap:round;stroke-miterlimit:4;stroke-dasharray:none;stroke-opacity:1"
       d="m 2.4909683,1.3553283 c -0.057315,0 -0.103265,0.0461 -0.103265,0.103265 v 0.238985 a 0.98283943,0.98283943 0 0 0 -0.229945,0.095305 l -0.1691,-0.169105 c -0.0404,-0.0405 -0.105415,-0.0405 -0.14586,0 l -0.21903,0.21902 c -0.0405,0.0405 -0.0405,0.10558 0,0.146015 l 0.16911,0.16911 a 0.98283943,0.98283943 0 0 0 -0.0953,0.229785 h -0.23916 c -0.057315,0 -0.103265,0.0461 -0.103265,0.10326 v 0.309805 c 0,0.05722 0.0461,0.103255 0.103265,0.103255 h 0.23916 a 0.98283943,0.98283943 0 0 0 0.0953,0.2297901 l -0.16911,0.169095 c -0.0405,0.04045 -0.0405,0.105585 0,0.14601 l 0.21903,0.21903 c 0.04045,0.0405 0.105415,0.0405 0.14586,0 l 0.1691,-0.1691 a 0.98283943,0.98283943 0 0 0 0.229945,0.0953 v 0.23915 c 0,0.057125 0.0461,0.1031499 0.103265,0.1031499 h 0.3098001 c 0.057315,0 0.10316,-0.04595 0.10316,-0.1031499 v -0.23915 a 0.98283943,0.98283943 0 0 0 0.229935,-0.095205 l 0.16896,0.16896 c 0.0405,0.04045 0.10572,0.04045 0.146165,0 l 0.2190201,-0.21903 c 0.0405,-0.0405 0.0405,-0.10557 0,-0.146015 l -0.1689501,-0.16895 a 0.98283943,0.98283943 0 0 0 0.095205,-0.2299351 h 0.23899 c 0.057125,0 0.10326,-0.0461 0.10326,-0.10326 v -0.309805 c 0,-0.057125 -0.0461,-0.103255 -0.10326,-0.103255 h -0.23899 a 0.98283943,0.98283943 0 0 0 -0.0953,-0.22979 l 0.1691001,-0.169105 c 0.0405,-0.0405 0.0405,-0.105565 0,-0.14601 l -0.2190201,-0.21902 c -0.04045,-0.0405 -0.10572,-0.0405 -0.146165,0 l -0.168945,0.16894 a 0.98283943,0.98283943 0 0 0 -0.22995,-0.09521 v -0.238995 c 0,-0.05722 -0.04605,-0.103255 -0.103155,-0.103255 z m 0.1536451,0.716815 a 0.57372617,0.57372617 0 0 1 0.002,0 0.57372617,0.57372617 0 0 1 0.573595,0.573765 0.57372617,0.57372617 0 0 1 -0.573595,0.5737601 0.57372617,0.57372617 0 0 1 -0.5737651,-0.5737601 0.57372617,0.57372617 0 0 1 0.5725101,-0.573765 z" />
  </g>
</svg>
