<svg width="20" height="20" version="1.1" viewBox="0 0 5.2917 5.2917" xmlns="http://www.w3.org/2000/svg">
 <g stroke-linecap="round">
  <circle cx="2.6458" cy="2.6458" r="2.6458" fill="#00d4aa" stroke-width=".090088"/>
  <g fill="#fff" stroke="#fff" stroke-width=".10583" aria-label="{}">
   <path d="m2.3881 3.988h-0.20671q-0.24667 0-0.40101-0.1378-0.15296-0.13643-0.15296-0.3955v-0.20533q0-0.23289-0.11438-0.3638-0.11438-0.13229-0.35002-0.13229h-0.07028v-0.21497h0.07028q0.23564 0 0.35002-0.13091 0.11438-0.13229 0.11438-0.36518v-0.20533q0-0.25907 0.15296-0.3955 0.15434-0.1378 0.40101-0.1378h0.20671v0.19017h-0.1571q-0.18741 0-0.27285 0.086816-0.08406 0.086816-0.08406 0.27974v0.24116q0 0.19155-0.10611 0.32246-0.10611 0.12954-0.2949 0.20533v0.033073q0.18879 0.075792 0.2949 0.20671 0.10611 0.12954 0.10611 0.32108v0.24116q0 0.19293 0.08406 0.27974 0.085438 0.086816 0.27285 0.086816h0.1571z"/>
   <path d="m4.1989 2.7533h-0.07028q-0.23564 0-0.35002 0.13229-0.11438 0.13091-0.11438 0.3638v0.20533q0 0.25907-0.15434 0.3955-0.15296 0.1378-0.39963 0.1378h-0.20671v-0.19017h0.1571q0.18741 0 0.27147-0.086816 0.085438-0.086816 0.085438-0.27974v-0.24116q0-0.19155 0.10611-0.32108 0.10611-0.13091 0.2949-0.20671v-0.033073q-0.18879-0.075792-0.2949-0.20533-0.10611-0.13091-0.10611-0.32246v-0.24116q0-0.19293-0.085438-0.27974-0.08406-0.086816-0.27147-0.086816h-0.1571v-0.19017h0.20671q0.24667 0 0.39963 0.1378 0.15434 0.13643 0.15434 0.3955v0.20533q0 0.23289 0.11438 0.36518 0.11438 0.13091 0.35002 0.13091h0.07028z"/>
  </g>
 </g>
</svg>
