<svg width="20" height="20" version="1.1" viewBox="0 0 5.2917 5.2917" xmlns="http://www.w3.org/2000/svg">
 <g stroke-linecap="round">
  <circle cx="2.6458" cy="2.6458" r="2.6458" fill="#ffd42a" stroke-width=".090088"/>
  <g fill="#2b2200" stroke-width=".52917" aria-label="0101">
   <path d="m1.6836 2.6451q0 0.2763-0.086816 0.40583-0.086127 0.12885-0.26803 0.12885-0.18466 0-0.2701-0.13091-0.084749-0.13091-0.084749-0.40239 0-0.27354 0.086127-0.40376 0.086127-0.13091 0.26872-0.13091 0.18466 0 0.26941 0.13298 0.085438 0.13229 0.085438 0.40032zm-0.18121 0.31281q0.024116-0.055811 0.032384-0.13091 0.00896-0.075792 0.00896-0.1819 0-0.10473-0.00896-0.1819-0.00827-0.07717-0.033073-0.13091-0.024116-0.053055-0.066146-0.079926-0.041341-0.026872-0.1068-0.026872-0.064768 0-0.10749 0.026872-0.04203 0.026872-0.066835 0.081304-0.023427 0.050987-0.032384 0.13298-0.00827 0.081993-0.00827 0.17983 0 0.10749 0.00758 0.17983t0.032384 0.12954q0.022738 0.053743 0.064079 0.081993 0.04203 0.02825 0.11093 0.02825 0.064768 0 0.10749-0.026872 0.042719-0.026872 0.066146-0.081304z"/>
   <path d="m2.5235 3.1585h-0.55535v-0.10473h0.2136v-0.68764h-0.2136v-0.093706q0.043408 0 0.093017-0.00689 0.049609-0.00758 0.075103-0.02136 0.031695-0.017225 0.049609-0.043408 0.018603-0.026872 0.02136-0.071658h0.1068v0.92466h0.20946z"/>
   <path d="m3.4778 2.6451q0 0.2763-0.086816 0.40583-0.086127 0.12885-0.26803 0.12885-0.18466 0-0.2701-0.13091-0.084749-0.13091-0.084749-0.40239 0-0.27354 0.086127-0.40376 0.086127-0.13091 0.26872-0.13091 0.18466 0 0.26941 0.13298 0.085438 0.13229 0.085438 0.40032zm-0.18121 0.31281q0.024116-0.055811 0.032384-0.13091 0.00896-0.075792 0.00896-0.1819 0-0.10473-0.00896-0.1819-0.00827-0.07717-0.033073-0.13091-0.024116-0.053055-0.066146-0.079926-0.041341-0.026872-0.1068-0.026872-0.064768 0-0.10749 0.026872-0.04203 0.026872-0.066835 0.081304-0.023427 0.050987-0.032384 0.13298-0.00827 0.081993-0.00827 0.17983 0 0.10749 0.00758 0.17983t0.032384 0.12954q0.022738 0.053743 0.064079 0.081993 0.04203 0.02825 0.11093 0.02825 0.064768 0 0.10749-0.026872 0.042719-0.026872 0.066146-0.081304z"/>
   <path d="m4.3177 3.1585h-0.55535v-0.10473h0.2136v-0.68764h-0.2136v-0.093706q0.043408 0 0.093018-0.00689 0.049609-0.00758 0.075103-0.02136 0.031695-0.017225 0.049609-0.043408 0.018604-0.026872 0.02136-0.071658h0.1068v0.92466h0.20946z"/>
  </g>
 </g>
</svg>
