<?xml version="1.0" encoding="UTF-8" standalone="no"?>
<!-- Created with Inkscape (http://www.inkscape.org/) -->

<svg
   width="20"
   height="20"
   viewBox="0 0 5.2916665 5.2916666"
   version="1.1"
   id="svg28688"
   inkscape:version="1.2 (dc2aeda, 2022-05-15)"
   sodipodi:docname="type-binary-icon.svg"
   xmlns:inkscape="http://www.inkscape.org/namespaces/inkscape"
   xmlns:sodipodi="http://sodipodi.sourceforge.net/DTD/sodipodi-0.dtd"
   xmlns="http://www.w3.org/2000/svg"
   xmlns:svg="http://www.w3.org/2000/svg">
  <sodipodi:namedview
     id="namedview28690"
     pagecolor="#ffffff"
     bordercolor="#000000"
     borderopacity="0.25"
     inkscape:showpageshadow="2"
     inkscape:pageopacity="0.0"
     inkscape:pagecheckerboard="0"
     inkscape:deskcolor="#d1d1d1"
     inkscape:document-units="mm"
     showgrid="false"
     inkscape:zoom="21.523008"
     inkscape:cx="14.61227"
     inkscape:cy="8.3399123"
     inkscape:window-width="1390"
     inkscape:window-height="905"
     inkscape:window-x="2413"
     inkscape:window-y="233"
     inkscape:window-maximized="0"
     inkscape:current-layer="layer1"
     showguides="false" />
  <defs
     id="defs28685" />
  <g
     inkscape:label="Layer 1"
     inkscape:groupmode="layer"
     id="layer1">
    <circle
       style="fill:#ffd42a;stroke-width:0.0900882;stroke-linecap:round"
       id="path355-7"
       cx="2.6458333"
       cy="2.6458333"
       r="2.6458333" />
    <g
       aria-label="0101"
       id="text417"
       style="font-size:1.41111px;-inkscape-font-specification:sans-serif;fill:#2b2200;stroke-width:0.529167;stroke-linecap:round">
      <path
         d="m 1.6836189,2.6451444 q 0,0.2762964 -0.086816,0.4058319 -0.086127,0.1288465 -0.2680282,0.1288465 -0.184657,0 -0.2700953,-0.1309135 -0.0847493,-0.1309135 -0.0847493,-0.4023869 0,-0.2735403 0.0861274,-0.4037648 0.086127,-0.1309136 0.2687172,-0.1309136 0.184657,0 0.2694063,0.1329806 0.085438,0.1322916 0.085438,0.4003198 z M 1.502407,2.9579588 q 0.024116,-0.055811 0.032384,-0.1309135 0.00896,-0.075792 0.00896,-0.1819009 0,-0.1047308 -0.00896,-0.1819009 -0.00827,-0.07717 -0.033073,-0.1309135 -0.024116,-0.053055 -0.066146,-0.079926 -0.041341,-0.026872 -0.1067979,-0.026872 -0.064768,0 -0.1074869,0.026872 -0.04203,0.026872 -0.066835,0.081304 -0.023427,0.050987 -0.032384,0.1329806 -0.00827,0.081993 -0.00827,0.1798338 0,0.1074869 0.00758,0.1798339 0.00758,0.072347 0.032384,0.1295355 0.022738,0.053743 0.064079,0.081993 0.04203,0.02825 0.110932,0.02825 0.064768,0 0.1074869,-0.026872 0.042719,-0.026872 0.066146,-0.081304 z"
         id="path469"
         style="fill:#2b2200" />
      <path
         d="M 2.5235325,3.1584632 H 1.9681835 V 3.0537324 H 2.1817793 V 2.3660919 H 1.9681835 v -0.093706 q 0.043408,0 0.093017,-0.00689 0.049609,-0.00758 0.075103,-0.02136 0.031695,-0.017225 0.049609,-0.043408 0.018603,-0.026872 0.02136,-0.071658 h 0.1067979 v 0.9246629 h 0.2094616 z"
         id="path471"
         style="fill:#2b2200" />
      <path
         d="m 3.4778232,2.6451444 q 0,0.2762964 -0.086816,0.4058319 -0.086127,0.1288465 -0.2680282,0.1288465 -0.184657,0 -0.2700953,-0.1309135 -0.084749,-0.1309135 -0.084749,-0.4023869 0,-0.2735403 0.086127,-0.4037648 0.086127,-0.1309136 0.2687173,-0.1309136 0.1846569,0 0.2694062,0.1329806 0.085438,0.1322916 0.085438,0.4003198 z M 3.2966113,2.9579588 q 0.024116,-0.055811 0.032384,-0.1309135 0.00896,-0.075792 0.00896,-0.1819009 0,-0.1047308 -0.00896,-0.1819009 -0.00827,-0.07717 -0.033073,-0.1309135 -0.024116,-0.053055 -0.066146,-0.079926 -0.041341,-0.026872 -0.1067978,-0.026872 -0.064768,0 -0.1074869,0.026872 -0.04203,0.026872 -0.066835,0.081304 -0.023427,0.050987 -0.032384,0.1329806 -0.00827,0.081993 -0.00827,0.1798338 0,0.1074869 0.00758,0.1798339 0.00758,0.072347 0.032384,0.1295355 0.022738,0.053743 0.064079,0.081993 0.04203,0.02825 0.110932,0.02825 0.064768,0 0.1074868,-0.026872 0.042719,-0.026872 0.066146,-0.081304 z"
         id="path473"
         style="fill:#2b2200" />
      <path
         d="M 4.3177369,3.1584632 H 3.7623879 V 3.0537324 H 3.9759837 V 2.3660919 H 3.7623879 v -0.093706 q 0.043408,0 0.093018,-0.00689 0.049609,-0.00758 0.075103,-0.02136 0.031695,-0.017225 0.049609,-0.043408 0.018604,-0.026872 0.02136,-0.071658 h 0.1067979 v 0.9246629 h 0.2094616 z"
         id="path475"
         style="fill:#2b2200" />
    </g>
  </g>
</svg>
