<?xml version="1.0" encoding="UTF-8" standalone="no"?>
<svg
   xmlns:dc="http://purl.org/dc/elements/1.1/"
   xmlns:cc="http://creativecommons.org/ns#"
   xmlns:rdf="http://www.w3.org/1999/02/22-rdf-syntax-ns#"
   xmlns:svg="http://www.w3.org/2000/svg"
   xmlns="http://www.w3.org/2000/svg"
   xmlns:sodipodi="http://sodipodi.sourceforge.net/DTD/sodipodi-0.dtd"
   xmlns:inkscape="http://www.inkscape.org/namespaces/inkscape"
   width="26"
   height="34"
   viewBox="0 0 6.8791665 8.9958337"
   version="1.1"
   id="svg51418"
   inkscape:version="1.0.1 (3bc2e813f5, 2020-09-07)"
   sodipodi:docname="visibility-menu-icon.svg">
  <defs
     id="defs51412" />
  <sodipodi:namedview
     id="base"
     pagecolor="#ffffff"
     bordercolor="#666666"
     borderopacity="1.0"
     inkscape:pageopacity="0.0"
     inkscape:pageshadow="2"
     inkscape:zoom="4.9283493"
     inkscape:cx="11.779436"
     inkscape:cy="-5.1525678"
     inkscape:document-units="px"
     inkscape:current-layer="layer1"
     inkscape:document-rotation="0"
     showgrid="false"
     showguides="false"
     units="px"
     inkscape:window-width="1439"
     inkscape:window-height="1087"
     inkscape:window-x="1363"
     inkscape:window-y="303"
     inkscape:window-maximized="0" />
  <metadata
     id="metadata51415">
    <rdf:RDF>
      <cc:Work
         rdf:about="">
        <dc:format>image/svg+xml</dc:format>
        <dc:type
           rdf:resource="http://purl.org/dc/dcmitype/StillImage" />
        <dc:title></dc:title>
      </cc:Work>
    </rdf:RDF>
  </metadata>
  <g
     inkscape:label="Layer 1"
     inkscape:groupmode="layer"
     id="layer1">
    <g
       id="g34870"
       transform="translate(-8.7319606,-149.14439)"
       style="display:inline;stroke:#ffffff;stroke-width:0.264583;stroke-miterlimit:4;stroke-dasharray:none">
      <path
         d="m 12.074483,156.30664 a 1.7793392,1.4066639 0 0 0 -1.777357,1.35419 h 3.556027 a 1.7793392,1.4066639 0 0 0 -1.778012,-1.35419 1.7793392,1.4066639 0 0 0 -5.81e-4,0 z"
         style="display:inline;fill:none;fill-opacity:1;stroke:#ffffff;stroke-width:0.264583;stroke-linecap:round;stroke-miterlimit:4;stroke-dasharray:none;stroke-dashoffset:0;stroke-opacity:1"
         id="path18625" />
      <path
         id="rect18633"
         style="fill:none;fill-opacity:1;stroke:#ffffff;stroke-width:0.264583;stroke-linecap:round;stroke-miterlimit:4;stroke-dasharray:none;stroke-dashoffset:0;stroke-opacity:1"
         d="m 11.830855,149.66032 c -0.07137,0.0167 -0.139742,0.0485 -0.200779,0.0957 -0.244147,0.18883 -0.276307,0.5536 -0.07203,0.81772 l 0.718946,0.92942 c 0.02235,0.0289 0.04699,0.055 0.07274,0.079 a 1.7241533,1.9046943 52.280374 0 1 0.388734,-0.39292 1.7241533,1.9046943 52.280374 0 1 0.478137,-0.2774 c -0.01674,-0.031 -0.03567,-0.0613 -0.05806,-0.0903 l -0.718996,-0.92962 c -0.15321,-0.19809 -0.394586,-0.28178 -0.608695,-0.23154 z" />
      <path
         id="rect18619"
         style="fill:none;fill-opacity:1;stroke:#ffffff;stroke-width:0.264583;stroke-linecap:round;stroke-miterlimit:4;stroke-dasharray:none;stroke-dashoffset:0;stroke-opacity:1"
         d="m 11.907506,156.29155 -1.9941866,-2.63532 c -0.0091,-0.012 -0.02588,-0.0145 -0.03787,-0.005 l -1.52e-4,2.6e-4 c -0.01715,0.15337 -0.126503,0.28058 -0.275563,0.32055 -0.0485,0.0129 -0.09911,0.0161 -0.148831,0.009 -0.002,0.008 -0.0014,0.0156 0.0038,0.0225 l 1.8361656,2.42651"
         sodipodi:nodetypes="cccccccc" />
      <circle
         r="0.37501925"
         cy="153.59947"
         cx="9.5018806"
         id="circle18627-8"
         style="display:inline;fill:none;fill-opacity:1;stroke:#ffffff;stroke-width:0.264583;stroke-linecap:round;stroke-miterlimit:4;stroke-dasharray:none;stroke-dashoffset:0;stroke-opacity:1" />
      <path
         id="rect18619-72"
         style="fill:none;fill-opacity:1;stroke:#ffffff;stroke-width:0.264583;stroke-linecap:round;stroke-miterlimit:4;stroke-dasharray:none;stroke-dashoffset:0;stroke-opacity:1"
         d="m 11.987268,151.13547 -2.4587176,2.05855 c -0.01153,0.01 -0.01316,0.0266 -0.0035,0.0381 h -10e-7 l 2.76e-4,1.5e-4 c 0.154029,0.01 0.286465,0.11253 0.333728,0.25944 0.01533,0.0478 0.02091,0.0982 0.0164,0.14821 0.0078,0.002 0.0157,8.3e-4 0.02231,-0.005 L 12.349746,151.582"
         sodipodi:nodetypes="ccccccccc" />
      <path
         id="path18635-6"
         style="fill:none;fill-opacity:1;stroke:#ffffff;stroke-width:0.264583;stroke-linecap:round;stroke-miterlimit:4;stroke-dasharray:none;stroke-dashoffset:0;stroke-opacity:1"
         d="m 12.712683,151.21655 a 1.7241533,1.9046943 52.280374 0 0 -0.558308,2.37257 l 2.995041,-2.31647 a 1.7241533,1.9046943 52.280374 0 0 -2.436733,-0.0561 z" />
      <path
         d="m 11.564913,156.72842 c -0.320929,0.1004 -0.596539,0.27258 -0.794642,0.49188"
         style="display:inline;fill:none;fill-opacity:1;stroke:#ffffff;stroke-width:0.264583;stroke-linecap:round;stroke-miterlimit:4;stroke-dasharray:none;stroke-dashoffset:0;stroke-opacity:1"
         id="path18625-2"
         sodipodi:nodetypes="cc" />
      <path
         id="path18635-6-9"
         style="fill:none;fill-opacity:1;stroke:#ffffff;stroke-width:0.264583;stroke-linecap:round;stroke-miterlimit:4;stroke-dasharray:none;stroke-dashoffset:0;stroke-opacity:1"
         d="m 12.497484,151.90684 c -0.167209,0.30831 -0.246741,0.64928 -0.228943,0.9819"
         sodipodi:nodetypes="cc" />
      <path
         style="fill:none;fill-opacity:1;stroke:#ffffff;stroke-width:0.264583;stroke-linecap:butt;stroke-linejoin:miter;stroke-miterlimit:4;stroke-dasharray:none;stroke-opacity:1"
         d="m 11.849508,150.37655 0.573784,0.74684"
         id="path15777" />
      <path
         style="fill:none;stroke:#ffffff;stroke-width:0.264583;stroke-linecap:butt;stroke-linejoin:miter;stroke-miterlimit:4;stroke-dasharray:none;stroke-opacity:1"
         d="m 12.969083,153.37569 0.48278,1.1685"
         id="path15779" />
      <path
         style="fill:none;stroke:#ffffff;stroke-width:0.264583;stroke-linecap:butt;stroke-linejoin:miter;stroke-miterlimit:4;stroke-dasharray:none;stroke-opacity:1"
         d="m 14.647419,152.05299 0.53588,0.15659"
         id="path15781" />
      <path
         style="fill:none;stroke:#ffffff;stroke-width:0.264583;stroke-linecap:butt;stroke-linejoin:miter;stroke-miterlimit:4;stroke-dasharray:none;stroke-opacity:1"
         d="m 13.717925,152.92111 1.361925,2.27133"
         id="path15783" />
      <path
         style="fill:none;stroke:#ffffff;stroke-width:0.264583;stroke-linecap:butt;stroke-linejoin:miter;stroke-miterlimit:4;stroke-dasharray:none;stroke-opacity:1"
         d="m 14.118234,152.58818 1.062262,1.03037"
         id="path15785" />
    </g>
  </g>
</svg>
