<?xml version="1.0" encoding="UTF-8" standalone="no"?>
<svg
   xmlns:dc="http://purl.org/dc/elements/1.1/"
   xmlns:cc="http://creativecommons.org/ns#"
   xmlns:rdf="http://www.w3.org/1999/02/22-rdf-syntax-ns#"
   xmlns:svg="http://www.w3.org/2000/svg"
   xmlns="http://www.w3.org/2000/svg"
   xmlns:sodipodi="http://sodipodi.sourceforge.net/DTD/sodipodi-0.dtd"
   xmlns:inkscape="http://www.inkscape.org/namespaces/inkscape"
   width="100"
   height="100"
   viewBox="0 0 26.458333 26.458334"
   version="1.1"
   id="svg39593"
   inkscape:version="1.0.1 (0767f8302a, 2020-10-17)"
   sodipodi:docname="api-illustration-black.svg">
  <defs
     id="defs39587" />
  <sodipodi:namedview
     id="base"
     pagecolor="#ffffff"
     bordercolor="#666666"
     borderopacity="1.0"
     inkscape:pageopacity="0"
     inkscape:pageshadow="2"
     inkscape:zoom="4.3216389"
     inkscape:cx="68.051809"
     inkscape:cy="58.006229"
     inkscape:document-units="mm"
     inkscape:current-layer="layer1"
     inkscape:document-rotation="0"
     showgrid="false"
     units="px"
     inkscape:window-width="1439"
     inkscape:window-height="1107"
     inkscape:window-x="959"
     inkscape:window-y="479"
     inkscape:window-maximized="0"
     inkscape:pagecheckerboard="false" />
  <metadata
     id="metadata39590">
    <rdf:RDF>
      <cc:Work
         rdf:about="">
        <dc:format>image/svg+xml</dc:format>
        <dc:type
           rdf:resource="http://purl.org/dc/dcmitype/StillImage" />
        <dc:title></dc:title>
      </cc:Work>
    </rdf:RDF>
  </metadata>
  <g
     inkscape:label="Layer 1"
     inkscape:groupmode="layer"
     id="layer1">
    <path
       id="path42578-1-3-1"
       style="display:inline;fill:none;fill-opacity:1;stroke:#00a3fa;stroke-width:0.26458333;stroke-linecap:round;stroke-miterlimit:4;stroke-dasharray:none;stroke-opacity:1"
       d="m 12.861485,9.9854414 c -0.144707,0 -0.261243,0.1165416 -0.261243,0.2612446 v 0.604568 a 2.4862551,2.4862551 0 0 0 -0.581681,0.241109 L 11.59079,10.664599 c -0.102309,-0.102337 -0.266655,-0.102337 -0.368974,0 l -0.554051,0.554046 c -0.102322,0.102309 -0.102322,0.267064 0,0.369368 l 0.427769,0.427778 a 2.4862551,2.4862551 0 0 0 -0.241105,0.581278 h -0.604964 c -0.144693,0 -0.2612394,0.116541 -0.2612394,0.261247 v 0.783711 c 0,0.144701 0.1165424,0.261245 0.2612394,0.261245 h 0.604964 a 2.4862551,2.4862551 0 0 0 0.241105,0.581278 l -0.427769,0.427778 c -0.102322,0.102322 -0.102322,0.267053 0,0.369354 l 0.554051,0.554062 c 0.102323,0.102322 0.266662,0.102322 0.368974,0 l 0.427771,-0.427779 a 2.4862551,2.4862551 0 0 0 0.581681,0.241122 v 0.604957 c 0,0.1447 0.116541,0.260843 0.261243,0.260843 h 0.783706 c 0.144701,0 0.260852,-0.116148 0.260852,-0.260843 v -0.604957 a 2.4862551,2.4862551 0 0 0 0.58168,-0.240718 l 0.427378,0.427375 c 0.102323,0.102322 0.267437,0.102322 0.369751,0 l 0.554053,-0.554062 c 0.102322,-0.102295 0.102322,-0.267037 0,-0.369354 l -0.427376,-0.427386 a 2.4862551,2.4862551 0 0 0 0.240722,-0.58167 h 0.604567 c 0.144698,0 0.261239,-0.116541 0.261239,-0.261245 v -0.783711 c 0,-0.144702 -0.116541,-0.261247 -0.261239,-0.261247 h -0.604567 a 2.4862551,2.4862551 0 0 0 -0.241118,-0.581278 l 0.427772,-0.427778 c 0.102322,-0.102322 0.102322,-0.267053 0,-0.369368 l -0.554053,-0.554046 c -0.102308,-0.102337 -0.267434,-0.102337 -0.369751,0 l -0.427378,0.427373 a 2.4862551,2.4862551 0 0 0 -0.58168,-0.240718 v -0.604568 c 0,-0.144701 -0.116148,-0.2612446 -0.260852,-0.2612446 z m 0.388697,1.8132966 a 1.4513353,1.4513353 0 0 1 0.0035,0 1.4513353,1.4513353 0 0 1 1.451031,1.451426 1.4513353,1.4513353 0 0 1 -1.451031,1.451426 1.4513353,1.4513353 0 0 1 -1.451428,-1.451426 1.4513353,1.4513353 0 0 1 1.448272,-1.451426 z" />
    <rect
       style="display:inline;fill:none;fill-opacity:1;stroke:#00a3fa;stroke-width:0.52916667;stroke-linecap:round;stroke-miterlimit:4;stroke-dasharray:none;stroke-dashoffset:0"
       id="rect41583"
       width="16.600048"
       height="16.600048"
       x="4.9395289"
       y="4.9501376"
       rx="1.0807583"
       ry="1.0807583" />
    <g
       id="g44044"
       transform="matrix(0.38448912,0,0,0.38448912,-7.4650473,-5.0594017)"
       style="stroke-width:0.68814258;stroke-miterlimit:4;stroke-dasharray:none">
      <path
         id="path41652"
         style="fill:none;fill-opacity:1;stroke:#00a3fa;stroke-width:0.68814258;stroke-linecap:round;stroke-miterlimit:4;stroke-dasharray:none;stroke-dashoffset:0"
         d="m 26.141216,59.582902 c 0,0.622893 -0.0277,1.124355 0.595192,1.124355 h 5.351482 v -4.001262 h -5.351482 c -0.622892,0 -0.595191,0.501456 -0.595191,1.124354 z"
         sodipodi:nodetypes="ssccsss" />
      <path
         id="path41654"
         style="fill:none;fill-opacity:1;stroke:#00a3fa;stroke-width:0.68814258;stroke-linecap:round;stroke-miterlimit:4;stroke-dasharray:none;stroke-dashoffset:0"
         d="m 26.141216,52.192151 c 0,0.622893 -0.0277,1.124355 0.595192,1.124355 h 5.351482 v -4.001262 h -5.351482 c -0.622892,0 -0.595191,0.501456 -0.595191,1.124354 z"
         sodipodi:nodetypes="ssccsss" />
      <path
         id="path41656"
         style="fill:none;fill-opacity:1;stroke:#00a3fa;stroke-width:0.68814258;stroke-linecap:round;stroke-miterlimit:4;stroke-dasharray:none;stroke-dashoffset:0"
         d="m 26.141216,44.801405 c 0,0.622892 -0.0277,1.124354 0.595192,1.124354 h 5.351482 v -4.001262 h -5.351482 c -0.622892,0 -0.595191,0.501457 -0.595191,1.124355 z"
         sodipodi:nodetypes="ssccsss" />
      <path
         id="path41658"
         style="fill:none;fill-opacity:1;stroke:#00a3fa;stroke-width:0.68814258;stroke-linecap:round;stroke-miterlimit:4;stroke-dasharray:none;stroke-dashoffset:0"
         d="m 26.141216,37.410653 c 0,0.622892 -0.0277,1.124354 0.595192,1.124354 h 5.351482 v -4.001262 h -5.351482 c -0.622892,0 -0.595191,0.501456 -0.595191,1.124354 z"
         sodipodi:nodetypes="ssccsss" />
    </g>
    <circle
       style="fill:none;stroke:#00a3fa;stroke-width:0.26458333;stroke-miterlimit:4;stroke-dasharray:none"
       id="path43955"
       cx="13.253141"
       cy="13.250161"
       r="1.7857111" />
    <g
       id="g44054"
       transform="matrix(-0.38448912,0,0,0.38448912,33.923381,-5.0594017)"
       style="stroke-width:0.68814258;stroke-miterlimit:4;stroke-dasharray:none">
      <path
         id="path44046"
         style="fill:none;fill-opacity:1;stroke:#00a3fa;stroke-width:0.68814258;stroke-linecap:round;stroke-miterlimit:4;stroke-dasharray:none;stroke-dashoffset:0"
         d="m 26.141216,59.582902 c 0,0.622893 -0.0277,1.124355 0.595192,1.124355 h 5.351482 v -4.001262 h -5.351482 c -0.622892,0 -0.595191,0.501456 -0.595191,1.124354 z"
         sodipodi:nodetypes="ssccsss" />
      <path
         id="path44048"
         style="fill:none;fill-opacity:1;stroke:#00a3fa;stroke-width:0.68814258;stroke-linecap:round;stroke-miterlimit:4;stroke-dasharray:none;stroke-dashoffset:0"
         d="m 26.141216,52.192151 c 0,0.622893 -0.0277,1.124355 0.595192,1.124355 h 5.351482 v -4.001262 h -5.351482 c -0.622892,0 -0.595191,0.501456 -0.595191,1.124354 z"
         sodipodi:nodetypes="ssccsss" />
      <path
         id="path44050"
         style="fill:none;fill-opacity:1;stroke:#00a3fa;stroke-width:0.68814258;stroke-linecap:round;stroke-miterlimit:4;stroke-dasharray:none;stroke-dashoffset:0"
         d="m 26.141216,44.801405 c 0,0.622892 -0.0277,1.124354 0.595192,1.124354 h 5.351482 v -4.001262 h -5.351482 c -0.622892,0 -0.595191,0.501457 -0.595191,1.124355 z"
         sodipodi:nodetypes="ssccsss" />
      <path
         id="path44052"
         style="fill:none;fill-opacity:1;stroke:#00a3fa;stroke-width:0.68814258;stroke-linecap:round;stroke-miterlimit:4;stroke-dasharray:none;stroke-dashoffset:0"
         d="m 26.141216,37.410653 c 0,0.622892 -0.0277,1.124354 0.595192,1.124354 h 5.351482 v -4.001262 h -5.351482 c -0.622892,0 -0.595191,0.501456 -0.595191,1.124354 z"
         sodipodi:nodetypes="ssccsss" />
    </g>
    <g
       id="g44064"
       transform="matrix(0,-0.38448912,-0.38448912,0,31.549123,33.857709)"
       style="stroke-width:0.68814258;stroke-miterlimit:4;stroke-dasharray:none">
      <path
         id="path44056"
         style="fill:none;fill-opacity:1;stroke:#00a3fa;stroke-width:0.68814258;stroke-linecap:round;stroke-miterlimit:4;stroke-dasharray:none;stroke-dashoffset:0"
         d="m 26.141216,59.582902 c 0,0.622893 -0.0277,1.124355 0.595192,1.124355 h 5.351482 v -4.001262 h -5.351482 c -0.622892,0 -0.595191,0.501456 -0.595191,1.124354 z"
         sodipodi:nodetypes="ssccsss" />
      <path
         id="path44058"
         style="fill:none;fill-opacity:1;stroke:#00a3fa;stroke-width:0.68814258;stroke-linecap:round;stroke-miterlimit:4;stroke-dasharray:none;stroke-dashoffset:0"
         d="m 26.141216,52.192151 c 0,0.622893 -0.0277,1.124355 0.595192,1.124355 h 5.351482 v -4.001262 h -5.351482 c -0.622892,0 -0.595191,0.501456 -0.595191,1.124354 z"
         sodipodi:nodetypes="ssccsss" />
      <path
         id="path44060"
         style="fill:none;fill-opacity:1;stroke:#00a3fa;stroke-width:0.68814258;stroke-linecap:round;stroke-miterlimit:4;stroke-dasharray:none;stroke-dashoffset:0"
         d="m 26.141216,44.801405 c 0,0.622892 -0.0277,1.124354 0.595192,1.124354 h 5.351482 v -4.001262 h -5.351482 c -0.622892,0 -0.595191,0.501457 -0.595191,1.124355 z"
         sodipodi:nodetypes="ssccsss" />
      <path
         id="path44062"
         style="fill:none;fill-opacity:1;stroke:#00a3fa;stroke-width:0.68814258;stroke-linecap:round;stroke-miterlimit:4;stroke-dasharray:none;stroke-dashoffset:0"
         d="m 26.141216,37.410653 c 0,0.622892 -0.0277,1.124354 0.595192,1.124354 h 5.351482 v -4.001262 h -5.351482 c -0.622892,0 -0.595191,0.501456 -0.595191,1.124354 z"
         sodipodi:nodetypes="ssccsss" />
    </g>
    <g
       id="g44074"
       transform="matrix(0,0.38448912,-0.38448912,0,31.549123,-7.3993754)"
       style="stroke-width:0.68814258;stroke-miterlimit:4;stroke-dasharray:none">
      <path
         id="path44066"
         style="fill:none;fill-opacity:1;stroke:#00a3fa;stroke-width:0.68814258;stroke-linecap:round;stroke-miterlimit:4;stroke-dasharray:none;stroke-dashoffset:0"
         d="m 26.141216,59.582902 c 0,0.622893 -0.0277,1.124355 0.595192,1.124355 h 5.351482 v -4.001262 h -5.351482 c -0.622892,0 -0.595191,0.501456 -0.595191,1.124354 z"
         sodipodi:nodetypes="ssccsss" />
      <path
         id="path44068"
         style="fill:none;fill-opacity:1;stroke:#00a3fa;stroke-width:0.68814258;stroke-linecap:round;stroke-miterlimit:4;stroke-dasharray:none;stroke-dashoffset:0"
         d="m 26.141216,52.192151 c 0,0.622893 -0.0277,1.124355 0.595192,1.124355 h 5.351482 v -4.001262 h -5.351482 c -0.622892,0 -0.595191,0.501456 -0.595191,1.124354 z"
         sodipodi:nodetypes="ssccsss" />
      <path
         id="path44070"
         style="fill:none;fill-opacity:1;stroke:#00a3fa;stroke-width:0.68814258;stroke-linecap:round;stroke-miterlimit:4;stroke-dasharray:none;stroke-dashoffset:0"
         d="m 26.141216,44.801405 c 0,0.622892 -0.0277,1.124354 0.595192,1.124354 h 5.351482 v -4.001262 h -5.351482 c -0.622892,0 -0.595191,0.501457 -0.595191,1.124355 z"
         sodipodi:nodetypes="ssccsss" />
      <path
         id="path44072"
         style="fill:none;fill-opacity:1;stroke:#00a3fa;stroke-width:0.68814258;stroke-linecap:round;stroke-miterlimit:4;stroke-dasharray:none;stroke-dashoffset:0"
         d="m 26.141216,37.410653 c 0,0.622892 -0.0277,1.124354 0.595192,1.124354 h 5.351482 v -4.001262 h -5.351482 c -0.622892,0 -0.595191,0.501456 -0.595191,1.124354 z"
         sodipodi:nodetypes="ssccsss" />
    </g>
    <rect
       style="display:inline;fill:none;fill-opacity:1;stroke:#00a3fa;stroke-width:0.26458333;stroke-linecap:round;stroke-miterlimit:4;stroke-dasharray:none;stroke-dashoffset:0"
       id="rect44089"
       width="14.31706"
       height="14.31706"
       x="6.081027"
       y="6.0916357"
       rx="0.40727088"
       ry="0.40727088" />
  </g>
</svg>
